<?xml version="1.0" encoding="UTF-8" standalone="no"?><svg xmlns="http://www.w3.org/2000/svg" xmlns:xlink="http://www.w3.org/1999/xlink" data-name="Layer 1" fill="#ffffff" height="62" preserveAspectRatio="xMidYMid meet" version="1" viewBox="0.8 1.0 62.5 62.0" width="62.5" zoomAndPan="magnify"><g id="change1_1"><path d="M33,47.741l22.291-6.784A1,1,0,0,0,56,40V35.931a8,8,0,1,0-2,0v3.328L33,45.65V34.535l8.555-5.7A1,1,0,0,0,42,28V20.931a8,8,0,1,0-2,0v6.534l-7,4.667V26a1,1,0,0,0-.615-.923L21,20.333v-3.4a8,8,0,1,0-2,0V21a1,1,0,0,0,.615.923L31,26.667V48.65L10,42.259V36.931a8,8,0,1,0-2,0V43a1,1,0,0,0,.709.957L31,50.741V55H26a1,1,0,0,0-1,1v2H1v2H25v2a1,1,0,0,0,1,1H38a1,1,0,0,0,1-1V60H63V58H39V56a1,1,0,0,0-1-1H33ZM51.5,32.863V29a2,2,0,0,1,2-2H55a2,2,0,1,1,2-2,2,2,0,0,1-2,2h1.5a2,2,0,0,1,2,2v3.863a5.955,5.955,0,0,1-7,0Zm-14-15V14a2,2,0,0,1,2-2H41a2,2,0,1,1,2-2,2,2,0,0,1-2,2h1.5a2,2,0,0,1,2,2v3.863a5.955,5.955,0,0,1-7,0Zm-21-4V10a2,2,0,0,1,2-2H20a2,2,0,1,1,2-2,2,2,0,0,1-2,2h1.5a2,2,0,0,1,2,2v3.863a5.955,5.955,0,0,1-7,0Zm-11,20V30a2,2,0,0,1,2-2H9a2,2,0,1,1,2-2,2,2,0,0,1-2,2h1.5a2,2,0,0,1,2,2v3.863a5.955,5.955,0,0,1-7,0Z" fill="inherit"/></g></svg>